<?xml version="1.0" standalone="no"?>
<!DOCTYPE svg PUBLIC "-//W3C//DTD SVG 20010904//EN"
 "http://www.w3.org/TR/2001/REC-SVG-20010904/DTD/svg10.dtd">
<svg version="1.0" xmlns="http://www.w3.org/2000/svg"
 width="500.000000pt" height="500.000000pt" viewBox="0 0 500.000000 500.000000"
 preserveAspectRatio="xMidYMid meet">
<metadata>
Created by potrace 1.14, written by Peter Selinger 2001-2017
</metadata>
<g transform="translate(0.000000,500.000000) scale(0.100000,-0.100000)"
fill="#000000" stroke="none">
<path d="M2620 4017 c0 -1 5 -29 10 -62 37 -219 45 -320 45 -560 0 -178 -5
-256 -20 -336 -20 -102 -32 -147 -65 -239 -73 -200 -93 -306 -93 -491 0 -212
60 -388 177 -518 83 -93 284 -198 413 -216 21 -4 43 -8 50 -10 25 -8 124 -17
231 -19 l112 -3 19 66 c26 91 41 156 47 205 3 22 7 48 10 56 17 49 24 358 11
489 -10 105 -51 301 -86 406 -79 246 -195 465 -362 685 -108 142 -113 148
-257 294 -79 81 -99 105 -62 75 70 -56 274 -259 326 -323 21 -27 44 -54 50
-60 27 -29 130 -175 179 -255 162 -266 264 -553 292 -818 13 -123 5 -435 -11
-461 -2 -4 -7 -29 -10 -56 -3 -26 -8 -51 -10 -55 -3 -4 -7 -21 -10 -37 -3 -16
-16 -66 -30 -111 -27 -95 -30 -92 68 -67 187 48 354 181 434 344 69 140 86
225 87 430 0 180 -4 224 -30 324 -94 361 -417 713 -950 1037 -155 94 -565 302
-565 286z"/>
<path d="M2007 3244 c-1 -1 -44 -5 -95 -9 -52 -3 -99 -8 -105 -10 -7 -2 -28
-6 -47 -9 -19 -3 -67 -12 -105 -20 -39 -8 -82 -17 -95 -19 -93 -17 -476 -153
-630 -225 -249 -114 -508 -256 -750 -411 -129 -83 -131 -86 -83 -106 388 -162
689 -331 918 -516 142 -115 170 -144 310 -319 73 -91 161 -193 196 -226 68
-65 231 -191 277 -215 15 -7 38 -20 52 -29 44 -28 148 -71 238 -97 255 -75
544 -11 772 172 70 56 230 227 230 245 0 6 -17 10 -37 10 -51 0 -193 35 -271
65 -180 72 -315 208 -381 385 -36 98 -50 195 -47 348 l2 143 -45 20 c-25 11
-104 40 -176 65 -166 55 -272 80 -500 118 -216 35 -657 26 -910 -19 -125 -22
-138 -25 -170 -30 -16 -3 -83 -19 -149 -35 -65 -17 -121 -30 -125 -29 -10 1
97 37 204 68 100 29 256 63 395 86 25 4 54 9 65 11 11 2 47 6 80 9 33 3 87 8
120 12 86 8 396 9 490 0 182 -18 244 -27 370 -58 44 -11 89 -22 100 -24 37 -8
169 -52 223 -74 39 -15 54 -18 56 -8 3 6 13 41 24 77 11 36 31 96 45 133 43
114 69 243 82 408 l3 39 -66 19 c-92 27 -146 39 -222 47 -59 6 -238 12 -243 8z"/>
</g>
</svg>
