<svg xmlns="http://www.w3.org/2000/svg" xmlns:xlink="http://www.w3.org/1999/xlink" width="500" zoomAndPan="magnify" viewBox="0 0 375 225" height="300" preserveAspectRatio="xMidYMid meet" version="1.0"><defs><g/><clipPath id="07323d9bc5"><path d="M 85 30 L 144 30 L 144 117 L 85 117 Z M 85 30 " clip-rule="nonzero"/></clipPath><clipPath id="eb515eddab"><path d="M 0.00390625 85.445312 L 86.847656 -1.398438 L 170.496094 82.253906 L 83.652344 169.097656 Z M 0.00390625 85.445312 " clip-rule="nonzero"/></clipPath><clipPath id="5ae1ff9bb1"><path d="M 0.00390625 85.445312 L 86.847656 -1.398438 L 170.496094 82.253906 L 83.652344 169.097656 Z M 0.00390625 85.445312 " clip-rule="nonzero"/></clipPath><clipPath id="a9c404ae5b"><path d="M 0.00390625 85.445312 L 86.847656 -1.398438 L 170.496094 82.253906 L 83.652344 169.097656 Z M 0.00390625 85.445312 " clip-rule="nonzero"/></clipPath><clipPath id="5ca4d1a5d0"><path d="M 0 57 L 107 57 L 107 136 L 0 136 Z M 0 57 " clip-rule="nonzero"/></clipPath><clipPath id="6ffac735c2"><path d="M 0.00390625 85.445312 L 86.847656 -1.398438 L 170.496094 82.253906 L 83.652344 169.097656 Z M 0.00390625 85.445312 " clip-rule="nonzero"/></clipPath><clipPath id="96ee301b60"><path d="M 0.00390625 85.445312 L 86.847656 -1.398438 L 170.496094 82.253906 L 83.652344 169.097656 Z M 0.00390625 85.445312 " clip-rule="nonzero"/></clipPath><clipPath id="effbacd422"><path d="M 0.00390625 85.445312 L 86.847656 -1.398438 L 170.496094 82.253906 L 83.652344 169.097656 Z M 0.00390625 85.445312 " clip-rule="nonzero"/></clipPath></defs><g clip-path="url(#07323d9bc5)"><g clip-path="url(#eb515eddab)"><g clip-path="url(#5ae1ff9bb1)"><g clip-path="url(#a9c404ae5b)"><path fill="#80cc28" d="M 142.804688 79.964844 C 138.664062 50.515625 89.34375 30.835938 89.34375 30.835938 C 89.34375 30.835938 95.078125 57.175781 88.253906 72.960938 C 83.695312 83.503906 77.882812 117.269531 118.140625 116.265625 C 118.570312 116.253906 119.011719 116.234375 119.460938 116.199219 C 124.300781 101.082031 129.085938 67.355469 92.515625 34.660156 C 92.515625 34.660156 138.839844 67.226562 121.851562 115.9375 C 132.671875 114.324219 146.503906 106.273438 142.804688 79.964844 " fill-opacity="1" fill-rule="nonzero"/></g></g></g></g><g clip-path="url(#5ca4d1a5d0)"><g clip-path="url(#6ffac735c2)"><g clip-path="url(#96ee301b60)"><g clip-path="url(#effbacd422)"><path fill="#27963c" d="M 80.488281 87.292969 C 62.800781 79.351562 38.425781 75.476562 6.304688 84.605469 C 6.304688 84.605469 44.789062 68.601562 81.152344 83.726562 C 81.753906 81.066406 82.519531 78.761719 83.253906 77.0625 C 85.363281 72.183594 86.269531 66.296875 86.519531 60.484375 C 52.050781 47.652344 0.0625 85.410156 0.0625 85.410156 C 0.0625 85.410156 32.199219 97.175781 44.527344 115.226562 C 52.230469 126.515625 81.023438 152.816406 106.097656 120.164062 C 81.558594 117.945312 78.621094 100.132812 80.488281 87.292969 " fill-opacity="1" fill-rule="nonzero"/></g></g></g></g><g fill="#000000" fill-opacity="1"><g transform="translate(97.165082, 197.254959)"><g><path d="M 12.84375 -23.078125 C 13.976562 -23.078125 14.941406 -22.90625 15.734375 -22.5625 C 16.535156 -22.21875 17.238281 -21.859375 17.84375 -21.484375 C 20.875 -19.285156 24.054688 -17.539062 27.390625 -16.25 C 30.722656 -14.96875 34.320312 -14.328125 38.1875 -14.328125 C 41.832031 -14.328125 44.65625 -14.988281 46.65625 -16.3125 C 48.664062 -17.632812 49.671875 -19.472656 49.671875 -21.828125 L 49.671875 -22.046875 C 49.671875 -23.179688 49.460938 -24.1875 49.046875 -25.0625 C 48.628906 -25.9375 47.832031 -26.769531 46.65625 -27.5625 C 45.488281 -28.363281 43.859375 -29.125 41.765625 -29.84375 C 39.679688 -30.5625 36.972656 -31.335938 33.640625 -32.171875 C 29.628906 -33.148438 25.992188 -34.226562 22.734375 -35.40625 C 19.472656 -36.582031 16.707031 -38.078125 14.4375 -39.890625 C 12.164062 -41.710938 10.40625 -43.945312 9.15625 -46.59375 C 7.90625 -49.25 7.28125 -52.550781 7.28125 -56.5 L 7.28125 -56.71875 C 7.28125 -60.351562 7.957031 -63.628906 9.3125 -66.546875 C 10.675781 -69.472656 12.585938 -71.992188 15.046875 -74.109375 C 17.515625 -76.234375 20.453125 -77.863281 23.859375 -79 C 27.273438 -80.132812 31.03125 -80.703125 35.125 -80.703125 C 44.75 -80.703125 53.160156 -78.351562 60.359375 -73.65625 C 61.347656 -73.050781 62.238281 -72.179688 63.03125 -71.046875 C 63.820312 -69.910156 64.21875 -68.46875 64.21875 -66.71875 C 64.21875 -64.445312 63.421875 -62.535156 61.828125 -60.984375 C 60.242188 -59.429688 58.316406 -58.65625 56.046875 -58.65625 C 54.453125 -58.65625 52.972656 -59.070312 51.609375 -59.90625 C 45.847656 -63.46875 40.273438 -65.25 34.890625 -65.25 C 31.484375 -65.25 28.925781 -64.582031 27.21875 -63.25 C 25.519531 -61.925781 24.671875 -60.28125 24.671875 -58.3125 L 24.671875 -58.09375 C 24.671875 -56.726562 24.914062 -55.585938 25.40625 -54.671875 C 25.894531 -53.765625 26.785156 -52.953125 28.078125 -52.234375 C 29.367188 -51.515625 31.128906 -50.796875 33.359375 -50.078125 C 35.597656 -49.359375 38.421875 -48.539062 41.828125 -47.625 C 45.847656 -46.5625 49.429688 -45.367188 52.578125 -44.046875 C 55.722656 -42.722656 58.375 -41.128906 60.53125 -39.265625 C 62.6875 -37.410156 64.3125 -35.234375 65.40625 -32.734375 C 66.507812 -30.234375 67.0625 -27.238281 67.0625 -23.75 L 67.0625 -23.53125 C 67.0625 -19.59375 66.34375 -16.085938 64.90625 -13.015625 C 63.46875 -9.941406 61.457031 -7.363281 58.875 -5.28125 C 56.300781 -3.195312 53.234375 -1.601562 49.671875 -0.5 C 46.109375 0.59375 42.171875 1.140625 37.859375 1.140625 C 32.628906 1.140625 27.472656 0.34375 22.390625 -1.25 C 17.316406 -2.84375 12.503906 -5.226562 7.953125 -8.40625 C 6.972656 -9.09375 6.175781 -10.019531 5.5625 -11.1875 C 4.957031 -12.363281 4.65625 -13.632812 4.65625 -15 C 4.65625 -17.28125 5.453125 -19.195312 7.046875 -20.75 C 8.640625 -22.300781 10.570312 -23.078125 12.84375 -23.078125 Z M 12.84375 -23.078125 "/></g></g></g><g fill="#000000" fill-opacity="1"><g transform="translate(158.088931, 197.254959)"><g><path d="M 6.359375 -9.203125 C 6.359375 -11.929688 7.285156 -14.222656 9.140625 -16.078125 C 11.003906 -17.941406 13.375 -18.875 16.25 -18.875 C 19.132812 -18.875 21.503906 -17.941406 23.359375 -16.078125 C 25.210938 -14.222656 26.140625 -11.929688 26.140625 -9.203125 L 26.140625 -8.984375 C 26.140625 -6.253906 25.210938 -3.957031 23.359375 -2.09375 C 21.503906 -0.238281 19.132812 0.6875 16.25 0.6875 C 13.375 0.6875 11.003906 -0.238281 9.140625 -2.09375 C 7.285156 -3.957031 6.359375 -6.253906 6.359375 -8.984375 Z M 6.359375 -9.203125 "/></g></g></g><g fill="#000000" fill-opacity="1"><g transform="translate(178.775501, 197.254959)"><g><path d="M 9.546875 -8.078125 L 9.546875 -70.8125 C 9.546875 -73.238281 10.394531 -75.300781 12.09375 -77 C 13.800781 -78.707031 15.867188 -79.5625 18.296875 -79.5625 L 62.859375 -79.5625 C 65.054688 -79.5625 66.929688 -78.785156 68.484375 -77.234375 C 70.035156 -75.679688 70.8125 -73.804688 70.8125 -71.609375 C 70.8125 -69.410156 70.035156 -67.535156 68.484375 -65.984375 C 66.929688 -64.429688 65.054688 -63.65625 62.859375 -63.65625 L 27.046875 -63.65625 L 27.046875 -46.71875 L 57.75 -46.71875 C 59.945312 -46.71875 61.820312 -45.941406 63.375 -44.390625 C 64.925781 -42.835938 65.703125 -40.960938 65.703125 -38.765625 C 65.703125 -36.566406 64.925781 -34.691406 63.375 -33.140625 C 61.820312 -31.585938 59.945312 -30.8125 57.75 -30.8125 L 27.046875 -30.8125 L 27.046875 -8.078125 C 27.046875 -5.648438 26.191406 -3.582031 24.484375 -1.875 C 22.785156 -0.164062 20.722656 0.6875 18.296875 0.6875 C 15.867188 0.6875 13.800781 -0.164062 12.09375 -1.875 C 10.394531 -3.582031 9.546875 -5.648438 9.546875 -8.078125 Z M 9.546875 -8.078125 "/></g></g></g><g fill="#000000" fill-opacity="1"><g transform="translate(241.517984, 197.254959)"><g><path d="M 6.359375 -9.203125 C 6.359375 -11.929688 7.285156 -14.222656 9.140625 -16.078125 C 11.003906 -17.941406 13.375 -18.875 16.25 -18.875 C 19.132812 -18.875 21.503906 -17.941406 23.359375 -16.078125 C 25.210938 -14.222656 26.140625 -11.929688 26.140625 -9.203125 L 26.140625 -8.984375 C 26.140625 -6.253906 25.210938 -3.957031 23.359375 -2.09375 C 21.503906 -0.238281 19.132812 0.6875 16.25 0.6875 C 13.375 0.6875 11.003906 -0.238281 9.140625 -2.09375 C 7.285156 -3.957031 6.359375 -6.253906 6.359375 -8.984375 Z M 6.359375 -9.203125 "/></g></g></g><g fill="#000000" fill-opacity="1"><g transform="translate(262.204554, 197.254959)"><g><path d="M 47.515625 -80.9375 C 53.503906 -80.9375 58.582031 -80.234375 62.75 -78.828125 C 66.914062 -77.429688 70.703125 -75.441406 74.109375 -72.859375 C 75.023438 -72.179688 75.820312 -71.234375 76.5 -70.015625 C 77.1875 -68.804688 77.53125 -67.441406 77.53125 -65.921875 C 77.53125 -63.503906 76.691406 -61.476562 75.015625 -59.84375 C 73.347656 -58.21875 71.304688 -57.40625 68.890625 -57.40625 C 67.671875 -57.40625 66.644531 -57.59375 65.8125 -57.96875 C 64.976562 -58.351562 64.257812 -58.734375 63.65625 -59.109375 C 61.226562 -60.929688 58.707031 -62.332031 56.09375 -63.3125 C 53.476562 -64.300781 50.582031 -64.796875 47.40625 -64.796875 C 44.070312 -64.796875 40.984375 -64.148438 38.140625 -62.859375 C 35.296875 -61.566406 32.847656 -59.785156 30.796875 -57.515625 C 28.753906 -55.242188 27.164062 -52.609375 26.03125 -49.609375 C 24.894531 -46.617188 24.328125 -43.421875 24.328125 -40.015625 L 24.328125 -39.78125 C 24.328125 -36.375 24.894531 -33.15625 26.03125 -30.125 C 27.164062 -27.09375 28.738281 -24.4375 30.75 -22.15625 C 32.757812 -19.882812 35.179688 -18.085938 38.015625 -16.765625 C 40.859375 -15.441406 43.988281 -14.78125 47.40625 -14.78125 C 51.113281 -14.78125 54.3125 -15.304688 57 -16.359375 C 59.695312 -17.421875 62.253906 -18.976562 64.671875 -21.03125 C 66.191406 -22.320312 67.9375 -22.96875 69.90625 -22.96875 C 72.101562 -22.96875 74.015625 -22.171875 75.640625 -20.578125 C 77.273438 -18.984375 78.09375 -17.085938 78.09375 -14.890625 C 78.09375 -13.523438 77.804688 -12.347656 77.234375 -11.359375 C 76.671875 -10.378906 75.972656 -9.472656 75.140625 -8.640625 C 71.648438 -5.378906 67.671875 -2.894531 63.203125 -1.1875 C 58.734375 0.507812 53.273438 1.359375 46.828125 1.359375 C 40.992188 1.359375 35.578125 0.300781 30.578125 -1.8125 C 25.578125 -3.9375 21.253906 -6.835938 17.609375 -10.515625 C 13.972656 -14.191406 11.132812 -18.53125 9.09375 -23.53125 C 7.050781 -28.53125 6.03125 -33.875 6.03125 -39.5625 L 6.03125 -39.78125 C 6.03125 -45.46875 7.050781 -50.789062 9.09375 -55.75 C 11.132812 -60.71875 13.972656 -65.078125 17.609375 -68.828125 C 21.253906 -72.578125 25.613281 -75.53125 30.6875 -77.6875 C 35.769531 -79.851562 41.378906 -80.9375 47.515625 -80.9375 Z M 47.515625 -80.9375 "/></g></g></g></svg>