<svg xmlns="http://www.w3.org/2000/svg" height="1200" width="1600" version="1.1" xmlns:xlink="http://www.w3.org/1999/xlink" xmlns:svgjs="http://svgjs.com/svgjs"><rect fill="#f3f4f6" width="1600" height="1200"></rect><g><path d="M245.51 535.71C245.53 541.65 245.7 546.7 246.01 552.64 245.64 560.38 245.7 567.47 245.56 575.22 246.17 582.95 245.97 590.04 245.81 597.79 245.95 603.74 246 608.8 246.01 614.74 246.01 617.56 245.49 617.56 245.49 620.39" stroke="#2e3343" stroke-width="4" stroke-linecap="round" stroke-linejoin="round" opacity="1" fill="none"></path><path d="M282.49 557C278.76 558.95 276.24 560.32 272.64 562.51 270.19 563.92 270.12 563.8 267.68 565.21 265.23 566.62 265.44 566.98 263 568.39 257.69 571.06 253.19 573.39 248.23 576.67 244.49 578.63 241.96 579.96 238.32 582.09 233.24 585.18 228.75 587.49 223.69 590.61 218.77 593.99 214.41 596.53 209.09 599.22" stroke="#2e3343" stroke-width="4" stroke-linecap="round" stroke-linejoin="round" opacity="1" fill="none"></path><path d="M209.01 557.01C214.16 559.98 218.63 562.33 223.67 565.48 227.43 567.38 230.01 568.64 233.66 570.76 238.66 573.96 242.97 576.6 248.2 579.43 251.74 581.74 254.2 583.18 257.96 585.1 262.92 588.41 267.32 590.9 272.71 593.43 276.36 595.57 278.75 597.13 282.32 599.4" stroke="#2e3343" stroke-width="4" stroke-linecap="round" stroke-linejoin="round" opacity="1" fill="none"></path></g><g><path d="M1260.93 135.22C1260.82 139.2 1260.26 143.07 1260.15 146.93 1260.04 150.91 1260.49 154.78 1260.38 158.65 1260.26 162.62 1259.6 166.49 1259.6 170.36 1259.6 174.34 1259.71 178.2 1259.71 182.07 1259.71 185.94 1260.15 189.81 1260.15 193.79 1260.15 197.65 1260.04 201.52 1260.15 205.5 1260.15 209.37 1260.71 213.23 1260.82 217.21 1260.93 220.97 1260.71 224.95 1260.82 228.92 1260.93 232.68 1260.49 236.66 1260.6 240.64" stroke="#2e3343" stroke-width="4" stroke-linecap="round" stroke-linejoin="round" opacity="1" fill="none"></path><path d="M1293.64 176.33C1289.55 176.33 1285.79 175.88 1282.25 175.77 1278.28 175.66 1274.52 176.66 1270.87 176.55 1267.01 176.44 1263.25 175.66 1259.49 175.44 1255.73 175.33 1251.98 175.44 1248.11 175.33 1244.46 175.22 1240.71 174.89 1236.73 174.78 1233.19 174.67 1229.33 174.89 1225.35 174.78 1221.81 174.67 1218.05 174.89 1213.97 174.78" stroke="#2e3343" stroke-width="4" stroke-linecap="round" stroke-linejoin="round" opacity="1" fill="none"></path><path d="M1282.81 160.53C1279.27 162.18 1276.18 164.5 1272.75 166.49 1269.44 168.48 1265.9 170.25 1262.81 172.57S1256.51 177.21 1253.64 179.86C1250.76 182.4 1247.67 184.95 1245.02 187.82" stroke="#2e3343" stroke-width="4" stroke-linecap="round" stroke-linejoin="round" opacity="1" fill="none"></path><path d="M1280.38 202.07C1278.28 199.2 1276.84 195.88 1274.63 193.01 1272.42 190.14 1270.43 187.27 1268.11 184.5 1265.9 181.74 1262.92 179.53 1260.6 176.88S1255.85 171.58 1253.41 168.92C1250.98 166.38 1248.55 163.73 1246.12 161.19 1243.58 158.65 1241.48 155.77 1238.83 153.34 1236.18 150.91 1233.08 149.03 1230.43 146.71" stroke="#2e3343" stroke-width="4" stroke-linecap="round" stroke-linejoin="round" opacity="1" fill="none"></path><path d="M1346.45 427.27C1346.34 430.91 1346.67 434.45 1346.56 437.88 1346.45 441.52 1346.01 444.95 1346.01 448.48 1346.01 452.02 1346.12 455.55 1346.12 459.09 1346.12 462.52 1346.45 466.05 1346.45 469.59 1346.56 473.01 1346.67 476.44 1346.78 480.2" stroke="#2e3343" stroke-width="4" stroke-linecap="round" stroke-linejoin="round" opacity="1" fill="none"></path><path d="M1368 448.37C1364.13 448.37 1360.38 448.37 1356.73 448.26 1352.97 448.15 1349.22 448.04 1345.46 447.93 1341.81 447.82 1338.17 447.71 1334.19 447.6 1330.65 447.49 1326.9 446.94 1322.92 446.94" stroke="#2e3343" stroke-width="4" stroke-linecap="round" stroke-linejoin="round" opacity="1" fill="none"></path><path d="M1358.61 437.21C1356.73 438.98 1353.86 441.85 1350.21 444.73 1347.34 446.94 1344.24 449.48 1341.37 451.8 1337.95 454.67 1334.96 457.32 1333.08 459.31" stroke="#2e3343" stroke-width="4" stroke-linecap="round" stroke-linejoin="round" opacity="1" fill="none"></path><path d="M1359.16 463.95C1356.95 461.41 1354.63 458.76 1352.31 456.11 1350.1 453.46 1347.89 450.69 1345.68 448.15 1343.36 445.5 1340.93 443.07 1338.61 440.53 1336.07 437.88 1333.97 435.11 1331.43 433.01" stroke="#2e3343" stroke-width="4" stroke-linecap="round" stroke-linejoin="round" opacity="1" fill="none"></path></g></svg>