<svg xmlns="http://www.w3.org/2000/svg" xmlns:xlink="http://www.w3.org/1999/xlink" width="500" zoomAndPan="magnify" viewBox="0 0 375 225" height="300" preserveAspectRatio="xMidYMid meet" version="1.0"><defs><g/><clipPath id="c98686672d"><path d="M 85 32 L 144 32 L 144 118 L 85 118 Z M 85 32 " clip-rule="nonzero"/></clipPath><clipPath id="e1db3eea47"><path d="M 0.00390625 86.703125 L 86.847656 -0.136719 L 170.496094 83.511719 L 83.652344 170.355469 Z M 0.00390625 86.703125 " clip-rule="nonzero"/></clipPath><clipPath id="eded6e4b1f"><path d="M 0.00390625 86.703125 L 86.847656 -0.136719 L 170.496094 83.511719 L 83.652344 170.355469 Z M 0.00390625 86.703125 " clip-rule="nonzero"/></clipPath><clipPath id="1187ec5c15"><path d="M 0.00390625 86.703125 L 86.847656 -0.136719 L 170.496094 83.511719 L 83.652344 170.355469 Z M 0.00390625 86.703125 " clip-rule="nonzero"/></clipPath><clipPath id="af8ad45b8c"><path d="M 0 59 L 107 59 L 107 138 L 0 138 Z M 0 59 " clip-rule="nonzero"/></clipPath><clipPath id="56a264c438"><path d="M 0.00390625 86.703125 L 86.847656 -0.136719 L 170.496094 83.511719 L 83.652344 170.355469 Z M 0.00390625 86.703125 " clip-rule="nonzero"/></clipPath><clipPath id="170dc96fbe"><path d="M 0.00390625 86.703125 L 86.847656 -0.136719 L 170.496094 83.511719 L 83.652344 170.355469 Z M 0.00390625 86.703125 " clip-rule="nonzero"/></clipPath><clipPath id="d6bb4317a5"><path d="M 0.00390625 86.703125 L 86.847656 -0.136719 L 170.496094 83.511719 L 83.652344 170.355469 Z M 0.00390625 86.703125 " clip-rule="nonzero"/></clipPath></defs><g clip-path="url(#c98686672d)"><g clip-path="url(#e1db3eea47)"><g clip-path="url(#eded6e4b1f)"><g clip-path="url(#1187ec5c15)"><path fill="#80cc28" d="M 142.804688 81.226562 C 138.664062 51.773438 89.34375 32.097656 89.34375 32.097656 C 89.34375 32.097656 95.078125 58.4375 88.253906 74.21875 C 83.695312 84.761719 77.882812 118.527344 118.140625 117.523438 C 118.570312 117.515625 119.011719 117.492188 119.460938 117.457031 C 124.300781 102.339844 129.085938 68.613281 92.515625 35.917969 C 92.515625 35.917969 138.839844 68.484375 121.851562 117.195312 C 132.671875 115.585938 146.503906 107.53125 142.804688 81.226562 " fill-opacity="1" fill-rule="nonzero"/></g></g></g></g><g clip-path="url(#af8ad45b8c)"><g clip-path="url(#56a264c438)"><g clip-path="url(#170dc96fbe)"><g clip-path="url(#d6bb4317a5)"><path fill="#27963c" d="M 80.488281 88.550781 C 62.800781 80.609375 38.425781 76.734375 6.304688 85.867188 C 6.304688 85.867188 44.789062 69.863281 81.152344 84.984375 C 81.753906 82.324219 82.519531 80.023438 83.253906 78.324219 C 85.363281 73.441406 86.269531 67.554688 86.519531 61.742188 C 52.050781 48.910156 0.0625 86.667969 0.0625 86.667969 C 0.0625 86.667969 32.199219 98.433594 44.527344 116.484375 C 52.230469 127.773438 81.023438 154.074219 106.097656 121.421875 C 81.558594 119.207031 78.621094 101.390625 80.488281 88.550781 " fill-opacity="1" fill-rule="nonzero"/></g></g></g></g><g fill="#ffffff" fill-opacity="1"><g transform="translate(97.180155, 200.016292)"><g><path d="M 12.84375 -23.078125 C 13.976562 -23.078125 14.941406 -22.90625 15.734375 -22.5625 C 16.535156 -22.21875 17.238281 -21.859375 17.84375 -21.484375 C 20.875 -19.285156 24.054688 -17.539062 27.390625 -16.25 C 30.722656 -14.96875 34.320312 -14.328125 38.1875 -14.328125 C 41.820312 -14.328125 44.644531 -14.988281 46.65625 -16.3125 C 48.664062 -17.632812 49.671875 -19.472656 49.671875 -21.828125 L 49.671875 -22.046875 C 49.671875 -23.179688 49.460938 -24.1875 49.046875 -25.0625 C 48.628906 -25.9375 47.832031 -26.769531 46.65625 -27.5625 C 45.476562 -28.351562 43.847656 -29.109375 41.765625 -29.828125 C 39.679688 -30.554688 36.972656 -31.335938 33.640625 -32.171875 C 29.628906 -33.148438 25.992188 -34.226562 22.734375 -35.40625 C 19.472656 -36.582031 16.707031 -38.078125 14.4375 -39.890625 C 12.164062 -41.710938 10.40625 -43.945312 9.15625 -46.59375 C 7.90625 -49.25 7.28125 -52.546875 7.28125 -56.484375 L 7.28125 -56.71875 C 7.28125 -60.351562 7.957031 -63.628906 9.3125 -66.546875 C 10.675781 -69.460938 12.585938 -71.976562 15.046875 -74.09375 C 17.515625 -76.21875 20.453125 -77.847656 23.859375 -78.984375 C 27.273438 -80.128906 31.03125 -80.703125 35.125 -80.703125 C 44.738281 -80.703125 53.144531 -78.351562 60.34375 -73.65625 C 61.332031 -73.039062 62.222656 -72.164062 63.015625 -71.03125 C 63.816406 -69.894531 64.21875 -68.457031 64.21875 -66.71875 C 64.21875 -64.445312 63.421875 -62.53125 61.828125 -60.96875 C 60.234375 -59.414062 58.300781 -58.640625 56.03125 -58.640625 C 54.4375 -58.640625 52.957031 -59.054688 51.59375 -59.890625 C 45.84375 -63.453125 40.273438 -65.234375 34.890625 -65.234375 C 31.484375 -65.234375 28.925781 -64.570312 27.21875 -63.25 C 25.507812 -61.925781 24.65625 -60.28125 24.65625 -58.3125 L 24.65625 -58.078125 C 24.65625 -56.710938 24.898438 -55.578125 25.390625 -54.671875 C 25.890625 -53.765625 26.78125 -52.945312 28.0625 -52.21875 C 29.351562 -51.5 31.117188 -50.78125 33.359375 -50.0625 C 35.597656 -49.34375 38.421875 -48.53125 41.828125 -47.625 C 45.835938 -46.5625 49.414062 -45.363281 52.5625 -44.03125 C 55.707031 -42.707031 58.359375 -41.117188 60.515625 -39.265625 C 62.679688 -37.410156 64.3125 -35.234375 65.40625 -32.734375 C 66.507812 -30.234375 67.0625 -27.238281 67.0625 -23.75 L 67.0625 -23.53125 C 67.0625 -19.582031 66.335938 -16.070312 64.890625 -13 C 63.453125 -9.9375 61.445312 -7.363281 58.875 -5.28125 C 56.300781 -3.195312 53.234375 -1.601562 49.671875 -0.5 C 46.109375 0.59375 42.164062 1.140625 37.84375 1.140625 C 32.613281 1.140625 27.460938 0.34375 22.390625 -1.25 C 17.316406 -2.84375 12.503906 -5.226562 7.953125 -8.40625 C 6.972656 -9.09375 6.175781 -10.019531 5.5625 -11.1875 C 4.957031 -12.363281 4.65625 -13.632812 4.65625 -15 C 4.65625 -17.269531 5.453125 -19.179688 7.046875 -20.734375 C 8.640625 -22.296875 10.570312 -23.078125 12.84375 -23.078125 Z M 12.84375 -23.078125 "/></g></g></g><g fill="#ffffff" fill-opacity="1"><g transform="translate(158.101168, 200.016292)"><g><path d="M 6.359375 -9.203125 C 6.359375 -11.929688 7.285156 -14.222656 9.140625 -16.078125 C 11.003906 -17.929688 13.375 -18.859375 16.25 -18.859375 C 19.132812 -18.859375 21.503906 -17.929688 23.359375 -16.078125 C 25.210938 -14.222656 26.140625 -11.929688 26.140625 -9.203125 L 26.140625 -8.984375 C 26.140625 -6.253906 25.210938 -3.957031 23.359375 -2.09375 C 21.503906 -0.238281 19.132812 0.6875 16.25 0.6875 C 13.375 0.6875 11.003906 -0.238281 9.140625 -2.09375 C 7.285156 -3.957031 6.359375 -6.253906 6.359375 -8.984375 Z M 6.359375 -9.203125 "/></g></g></g><g fill="#ffffff" fill-opacity="1"><g transform="translate(178.78646, 200.016292)"><g><path d="M 9.546875 -8.0625 L 9.546875 -70.8125 C 9.546875 -73.226562 10.394531 -75.289062 12.09375 -77 C 13.800781 -78.707031 15.867188 -79.5625 18.296875 -79.5625 L 62.859375 -79.5625 C 65.046875 -79.5625 66.914062 -78.785156 68.46875 -77.234375 C 70.03125 -75.679688 70.8125 -73.804688 70.8125 -71.609375 C 70.8125 -69.410156 70.03125 -67.53125 68.46875 -65.96875 C 66.914062 -64.414062 65.046875 -63.640625 62.859375 -63.640625 L 27.046875 -63.640625 L 27.046875 -46.71875 L 57.734375 -46.71875 C 59.929688 -46.71875 61.804688 -45.9375 63.359375 -44.375 C 64.910156 -42.820312 65.6875 -40.945312 65.6875 -38.75 C 65.6875 -36.550781 64.910156 -34.675781 63.359375 -33.125 C 61.804688 -31.570312 59.929688 -30.796875 57.734375 -30.796875 L 27.046875 -30.796875 L 27.046875 -8.0625 C 27.046875 -5.644531 26.191406 -3.582031 24.484375 -1.875 C 22.785156 -0.164062 20.722656 0.6875 18.296875 0.6875 C 15.867188 0.6875 13.800781 -0.164062 12.09375 -1.875 C 10.394531 -3.582031 9.546875 -5.644531 9.546875 -8.0625 Z M 9.546875 -8.0625 "/></g></g></g><g fill="#ffffff" fill-opacity="1"><g transform="translate(241.526036, 200.016292)"><g><path d="M 6.359375 -9.203125 C 6.359375 -11.929688 7.285156 -14.222656 9.140625 -16.078125 C 11.003906 -17.929688 13.375 -18.859375 16.25 -18.859375 C 19.132812 -18.859375 21.503906 -17.929688 23.359375 -16.078125 C 25.210938 -14.222656 26.140625 -11.929688 26.140625 -9.203125 L 26.140625 -8.984375 C 26.140625 -6.253906 25.210938 -3.957031 23.359375 -2.09375 C 21.503906 -0.238281 19.132812 0.6875 16.25 0.6875 C 13.375 0.6875 11.003906 -0.238281 9.140625 -2.09375 C 7.285156 -3.957031 6.359375 -6.253906 6.359375 -8.984375 Z M 6.359375 -9.203125 "/></g></g></g><g fill="#ffffff" fill-opacity="1"><g transform="translate(262.211322, 200.016292)"><g><path d="M 47.515625 -80.921875 C 53.492188 -80.921875 58.566406 -80.21875 62.734375 -78.8125 C 66.898438 -77.414062 70.691406 -75.429688 74.109375 -72.859375 C 75.015625 -72.171875 75.804688 -71.21875 76.484375 -70 C 77.171875 -68.789062 77.515625 -67.429688 77.515625 -65.921875 C 77.515625 -63.492188 76.679688 -61.460938 75.015625 -59.828125 C 73.347656 -58.203125 71.300781 -57.390625 68.875 -57.390625 C 67.664062 -57.390625 66.644531 -57.578125 65.8125 -57.953125 C 64.976562 -58.335938 64.253906 -58.71875 63.640625 -59.09375 C 61.222656 -60.914062 58.707031 -62.316406 56.09375 -63.296875 C 53.476562 -64.285156 50.578125 -64.78125 47.390625 -64.78125 C 44.054688 -64.78125 40.96875 -64.132812 38.125 -62.84375 C 35.289062 -61.5625 32.847656 -59.78125 30.796875 -57.5 C 28.753906 -55.226562 27.164062 -52.597656 26.03125 -49.609375 C 24.894531 -46.617188 24.328125 -43.414062 24.328125 -40 L 24.328125 -39.78125 C 24.328125 -36.375 24.894531 -33.15625 26.03125 -30.125 C 27.164062 -27.09375 28.734375 -24.4375 30.734375 -22.15625 C 32.742188 -19.882812 35.171875 -18.085938 38.015625 -16.765625 C 40.859375 -15.441406 43.984375 -14.78125 47.390625 -14.78125 C 51.109375 -14.78125 54.3125 -15.304688 57 -16.359375 C 59.6875 -17.421875 62.242188 -18.976562 64.671875 -21.03125 C 66.179688 -22.3125 67.925781 -22.953125 69.90625 -22.953125 C 72.09375 -22.953125 74 -22.15625 75.625 -20.5625 C 77.257812 -18.976562 78.078125 -17.085938 78.078125 -14.890625 C 78.078125 -13.523438 77.789062 -12.347656 77.21875 -11.359375 C 76.65625 -10.378906 75.957031 -9.472656 75.125 -8.640625 C 71.644531 -5.378906 67.664062 -2.894531 63.1875 -1.1875 C 58.71875 0.507812 53.265625 1.359375 46.828125 1.359375 C 40.992188 1.359375 35.578125 0.300781 30.578125 -1.8125 C 25.578125 -3.9375 21.253906 -6.835938 17.609375 -10.515625 C 13.972656 -14.191406 11.132812 -18.53125 9.09375 -23.53125 C 7.050781 -28.53125 6.03125 -33.867188 6.03125 -39.546875 L 6.03125 -39.78125 C 6.03125 -45.457031 7.050781 -50.773438 9.09375 -55.734375 C 11.132812 -60.703125 13.972656 -65.0625 17.609375 -68.8125 C 21.253906 -72.5625 25.613281 -75.515625 30.6875 -77.671875 C 35.757812 -79.835938 41.367188 -80.921875 47.515625 -80.921875 Z M 47.515625 -80.921875 "/></g></g></g></svg>